<?xml version="1.0" encoding="utf-8"?>
<!-- Generator: Adobe Illustrator 23.1.0, SVG Export Plug-In . SVG Version: 6.00 Build 0)  -->
<svg version="1.1" id="Layer_1" xmlns="http://www.w3.org/2000/svg" xmlns:xlink="http://www.w3.org/1999/xlink" x="0px" y="0px"
	 width="436.9px" height="55.5px" viewBox="0 0 436.9 55.5" style="enable-background:new 0 0 436.9 55.5;" xml:space="preserve">
<style type="text/css">
	.st0{fill:#002539;}
	.st1{fill:#286A7A;}
</style>
<g>
	<path class="st0" d="M28.9,23.4c3.1-1.4,6.2-2.2,9.3-2.4c-0.5-0.1-1-0.2-1.5-0.3c-2.1-0.1-4.3,0-6.5,0.4
		C29.9,21.5,29.4,22.2,28.9,23.4"/>
	<path class="st0" d="M37.9,45.5c-1.6,0.5-3.3,1-5,1.4c-5.4,1.3-10.7,1.7-15.3,1.2c-0.3,2-0.5,4-0.6,5.9h9.2c2.9,0,6.1-0.5,9.6-1.4
		c1.4-0.4,2.8-1,4.1-1.8C39.3,49,38.6,47.2,37.9,45.5"/>
	<path class="st0" d="M33.4,32c3.2-1.2,5.9-2.9,7.4-4.7c-3.9-1.5-7.8-2.4-11.7-2.5C30.4,26.7,31.9,29.1,33.4,32"/>
	<path class="st0" d="M20.2,34.8c-2.9-0.5-4.9-1.7-5.6-3.4c-0.3,0.3-0.6,0.5-0.9,0.8c-2.5,3.7-4.2,7.6-5.2,11.2
		c1.7,1.6,4.4,2.7,8,3.3C17.3,42.5,18.6,38.4,20.2,34.8"/>
	<path class="st0" d="M8.1,44.7c-1.2,4.4-1.5,8-1.6,9.3h9.1c0.1-2,0.3-4.1,0.7-6.1C12.7,47.3,10,46.2,8.1,44.7"/>
	<path class="st0" d="M20.8,33.7c1.6-3.3,3.5-6.1,5.6-8.3c-3.9,1.2-7.5,2.9-10.7,5.3C16.1,32.1,18,33.2,20.8,33.7"/>
	<path class="st0" d="M16.3,28.9c3-2,6.2-3.5,9.7-4.5c-1.5-0.3-2.9-0.4-4.2-0.2c-1,0.6-1.9,1.3-2.8,2C18.1,27,17.2,27.9,16.3,28.9"
		/>
	<path class="st0" d="M28.7,21.4c-1.6,0.4-3.2,0.9-4.8,1.7c1.2,0.1,2.5,0.3,3.8,0.7C28,22.8,28.3,22,28.7,21.4"/>
	<path class="st0" d="M22,33.8c2.4,0.2,5.1,0,7.9-0.7c0.8-0.2,1.6-0.4,2.4-0.7c-1.5-3.1-3-5.5-4.3-7.3C25.7,27.4,23.7,30.3,22,33.8"
		/>
	<path class="st0" d="M32.7,45.7c1.6-0.4,3.3-0.9,4.8-1.4c-1.5-3.9-3.1-7.6-4.7-10.8c-0.9,0.3-1.8,0.5-2.7,0.8
		c-3.1,0.7-6.1,1-8.7,0.7c-1.6,3.6-2.9,7.7-3.6,11.9C22.3,47.3,27.4,46.9,32.7,45.7"/>
	<path class="st0" d="M40.5,22c-3.3,0-6.8,0.6-10.1,2c3.7,0.2,7.4,1.1,11.1,2.5c0.5-0.8,0.7-1.7,0.5-2.4
		C41.8,23.2,41.3,22.5,40.5,22"/>
	<path class="st0" d="M38.8,43.9c4.1-1.5,7.6-3.4,10.4-5.5c0.4-1.7,0.7-3.6,0.9-5.8c-2.5-1.9-5.3-3.5-8.1-4.7c-1.6,2-4.4,3.9-8,5.3
		C35.6,36.3,37.2,40,38.8,43.9"/>
	<path class="st0" d="M50.2,31.2c0.1-1.1,0.1-2.2,0.1-3.4c0-1.2-0.1-2.4-0.2-3.5c-2.4-1.2-5.1-1.9-7.8-2.2c0.5,0.5,0.8,1.2,0.9,1.8
		c0.2,1,0,2-0.6,3C45.2,28,47.8,29.5,50.2,31.2"/>
	<path class="st0" d="M48.5,40.3c-2.6,1.8-5.7,3.4-9.3,4.7c0.7,1.7,1.3,3.3,1.9,5c0.7-0.5,1.3-1,2-1.6c2.3-2.1,4-4.7,5.3-7.7
		C48.4,40.6,48.5,40.4,48.5,40.3"/>
	<path class="st1" d="M13.7,26.5c16.7-12.7,34.3-3.9,35.7-3.2c0.2,0.1,0.4,0.2,0.6,0.3c-0.2-2.1-0.5-4-1.1-6c-0.9-3.2-2.2-6-4.1-8.4
		C43,6.9,40.6,5,37.6,3.8c-2.9-1.3-6.7-1.9-11.4-1.9h-24v39.2C4.3,36.3,7.8,31,13.7,26.5"/>
</g>
<g>
	<path class="st0" d="M60.3,50V7.2h40c4.7,0,8.5,3.8,8.5,8.6v25.7c0,4.7-3.8,8.6-8.5,8.6H60.3z M100.3,47.1c3.1,0,5.7-2.5,5.7-5.7
		V15.8c0-3.2-2.6-5.8-5.7-5.8H63.1v37.1H100.3z"/>
	<path class="st0" d="M165.2,10h-22.8v40h-2.9V10h-22.9V7.2h48.5V10z"/>
	<path class="st0" d="M174.2,50V7.2h2.9V50H174.2z"/>
	<path class="st1" d="M221.7,50c-4.7,0-8.6-3.8-8.6-8.6V15.8c0-4.7,3.8-8.6,8.6-8.6h38.6V10h-38.6c-3.2,0-5.7,2.6-5.7,5.8v25.7
		c0,3.2,2.5,5.7,5.7,5.7h38.6V50H221.7z"/>
	<path class="st1" d="M317.8,15.8V50H315V30h-42.8v20h-2.9V15.8c0-4.7,3.8-8.6,8.6-8.6h31.4C313.9,7.2,317.8,11,317.8,15.8z
		 M315,27.2V15.8c0-3.2-2.6-5.8-5.7-5.8h-31.4c-3.2,0-5.7,2.6-5.7,5.8v11.4H315z"/>
	<path class="st1" d="M328.2,50v-2.9h38.6c3.1,0,5.7-2.5,5.7-5.7v-5.7c0-3.2-2.6-5.7-5.7-5.7h-31.4c-4.7,0-8.6-3.8-8.6-8.6v-5.7
		c0-4.7,3.8-8.6,8.6-8.6h38.6V10h-38.6c-3.2,0-5.7,2.6-5.7,5.8v5.7c0,3.1,2.5,5.7,5.7,5.7h31.4c4.7,0,8.5,3.8,8.5,8.6v5.7
		c0,4.7-3.8,8.6-8.5,8.6H328.2z"/>
	<path class="st1" d="M432.9,7.2V50H430V30h-42.8v20h-2.9V7.2h2.9v20H430v-20H432.9z"/>
</g>
</svg>
